<svg xmlns="http://www.w3.org/2000/svg" width="32" height="32" viewBox="0 0 32 32"><defs><style>.a{fill:#ff5c5c;stroke:#fab5b5;stroke-width:2px;}.b{fill:#f7f7f7;}.c{stroke:none;}.d{fill:none;}</style></defs><g class="a"><circle class="c" cx="16" cy="16" r="16"/><circle class="d" cx="16" cy="16" r="15"/></g><g transform="translate(6.49 9.375)"><g transform="translate(14.773 2.831)"><g transform="translate(0 0)"><path class="b" d="M356.9,166.953l-1.231-2.77a.308.308,0,0,0-.281-.183h-3.078a.308.308,0,0,0-.308.308v6.155a.308.308,0,0,0,.308.308h.616a1.231,1.231,0,1,0,2.462,0h1.231a.308.308,0,0,0,.308-.308v-3.385A.308.308,0,0,0,356.9,166.953Zm-1.165-1.106.41.923h-1.065v-.923Zm-3.117,0h.616v.923h-.616Zm1.539,5.54a.616.616,0,1,1,.616-.616A.616.616,0,0,1,354.154,171.386ZM356.309,168h-.616v.616h.616v1.539h-1.094a1.22,1.22,0,0,0-2.12,0h-.479v-2.77h.923a.308.308,0,0,0,.308-.308v-1.539a.308.308,0,0,0-.308-.308h-.923v-.616h2.57l.273.616h-.689a.308.308,0,0,0-.308.308v1.539a.308.308,0,0,0,.308.308h1.539Z" transform="translate(-352 -164)"/></g></g><g transform="translate(10.636 8.063)"><g transform="translate(0 0)"><path class="b" d="M258.77,300h-2.462a.308.308,0,0,0-.308.308v1.231a.308.308,0,0,0,.308.308h2.462a.308.308,0,0,0,.308-.308v-1.231A.308.308,0,0,0,258.77,300Zm-.308,1.231h-1.847v-.616h1.847Z" transform="translate(-256 -300)"/></g></g><g transform="translate(0.616 8.063)"><g transform="translate(0 0)"><path class="b" d="M24.31,300h-8a.308.308,0,0,0-.308.308v1.231a.308.308,0,0,0,.308.308h1.275a1.225,1.225,0,0,0,2.375,0h.7a1.225,1.225,0,0,0,2.375,0H24.31a.308.308,0,0,0,.308-.308v-1.231A.308.308,0,0,0,24.31,300Zm-6.727,1.231h-.967v-.616h1.349A1.224,1.224,0,0,0,17.583,301.231Zm1.187.923a.616.616,0,1,1,.616-.616A.616.616,0,0,1,18.77,302.154Zm1.89-.923h-.7a1.224,1.224,0,0,0-.382-.616h1.466A1.224,1.224,0,0,0,20.66,301.231Zm1.187.923a.616.616,0,1,1,.616-.616A.616.616,0,0,1,21.848,302.154ZM24,301.231h-.967a1.224,1.224,0,0,0-.382-.616H24Z" transform="translate(-16 -300)"/></g></g><g transform="translate(0 0)"><path class="b" d="M11.12,109.231H7.694v-.616H8.31V108H4.616v.616h.616v.616H1.807A1.809,1.809,0,0,0,0,111.038v1.927a1.809,1.809,0,0,0,1.807,1.807H11.12a1.809,1.809,0,0,0,1.807-1.807v-1.927A1.809,1.809,0,0,0,11.12,109.231Zm-5.272-.616H7.079v.616H5.848Zm-4,5.54h-.04a1.192,1.192,0,0,1-1.191-1.191v-1.927a1.192,1.192,0,0,1,1.191-1.191h.04Zm1.847,0H2.462v-.616H3.693Zm0-1.231H2.462v-.616H3.693Zm0-1.231H2.462v-.616H3.693Zm0-1.231H2.462v-.616H3.693Zm8.617,2.5a1.192,1.192,0,0,1-1.191,1.191h-.348v-3.693h-.616v3.693H4.309v-4.309H11.12a1.192,1.192,0,0,1,1.191,1.191v1.927Z" transform="translate(0 -108)"/></g></g></svg>