<svg xmlns="http://www.w3.org/2000/svg" width="48" height="48" viewBox="0 0 48 48"><defs><style>.a{fill:#000c98;stroke:#b2b7ff;stroke-width:4px;}.b{fill:#fff;}.c{stroke:none;}.d{fill:none;}</style></defs><g class="a"><circle class="c" cx="24" cy="24" r="24"/><circle class="d" cx="24" cy="24" r="22"/></g><g transform="translate(11.991 16.49)"><path class="b" d="M46.849,141.032a.367.367,0,0,0,.259-.626l-3.07-3.07.461-.461.72.72a.366.366,0,0,0,.518,0l2.056-2.056a1.753,1.753,0,0,0,0-2.477.366.366,0,0,0-.518,0L44.24,136.1h0l-.72.72-.892-.892a1.544,1.544,0,0,0-.228-1.89l-1.108-1.108a.367.367,0,1,0-.518.518l1.108,1.108a.809.809,0,1,1-1.144,1.144l-1.108-1.108a.366.366,0,1,0-.518.518l1.108,1.108a1.543,1.543,0,0,0,1.89.228l4.481,4.48A.365.365,0,0,0,46.849,141.032Zm.637-7.145a1.02,1.02,0,0,1-.211,1.133l-1.8,1.8-.461-.461Z" transform="translate(-37.045 -130.861)"/><path class="b" d="M57.19,151.525a.367.367,0,1,0,.518-.518L56.6,149.9a.366.366,0,0,0-.518.518Z" transform="translate(-53.186 -147.002)"/><path class="b" d="M58.119,239.293l-2.271,2.271a.366.366,0,1,0,.518.518l2.271-2.271a.366.366,0,0,0-.518-.518Z" transform="translate(-52.963 -232.02)"/><path class="b" d="M80.156,340.833a1.15,1.15,0,1,0,1.15,1.15A1.151,1.151,0,0,0,80.156,340.833Zm0,1.567a.417.417,0,1,1,.417-.417A.418.418,0,0,1,80.156,342.4Z" transform="translate(-75.089 -328.69)"/><path class="b" d="M400.179,340.833a1.15,1.15,0,1,0,1.15,1.15A1.151,1.151,0,0,0,400.179,340.833Zm0,1.567a.417.417,0,1,1,.417-.417A.417.417,0,0,1,400.179,342.4Z" transform="translate(-379.443 -328.69)"/><path class="b" d="M22.684,101.3l-4.623-.616-1.242-4.038a1.534,1.534,0,0,0-1.473-1.088H12.27V93.968a1.151,1.151,0,0,0-1.15-1.15H.152A1.151,1.151,0,0,0-1,93.968v11.36a1.151,1.151,0,0,0,1.15,1.15H1.378a2.716,2.716,0,0,0,5.383,0H17.046a2.716,2.716,0,0,0,5.383,0h.051a1.543,1.543,0,0,0,1.542-1.542v-2.1A1.547,1.547,0,0,0,22.684,101.3Zm-5.4-.651H13.862a.025.025,0,0,1-.025-.025V97.885a.025.025,0,0,1,.025-.025h2.562ZM4.069,108.095a1.986,1.986,0,0,1-1.984-1.983h0a1.984,1.984,0,0,1,2.975-1.718.367.367,0,0,0,.367-.635,2.717,2.717,0,0,0-4.05,1.987H.152a.417.417,0,0,1-.417-.417V93.968a.417.417,0,0,1,.417-.417H11.12a.417.417,0,0,1,.417.417V96.71a.367.367,0,0,0,.733,0v-.417h3.075a.8.8,0,0,1,.773.571l.081.263H13.862a.759.759,0,0,0-.758.758v2.742a.759.759,0,0,0,.758.758h3.893l4.832.644a.812.812,0,0,1,.671.581h-.386a.367.367,0,1,0,0,.733h.417v.834H21.644a2.715,2.715,0,0,0-4.6,1.567H12.27v-.834h3.82a.367.367,0,1,0,0-.733H12.27v-5.9a.367.367,0,0,0-.733,0v7.468H6.761a2.7,2.7,0,0,0-.129-.536.366.366,0,1,0-.691.243,1.986,1.986,0,0,1-1.872,2.643Zm15.669,0a1.984,1.984,0,1,1,1.984-1.984A1.986,1.986,0,0,1,19.738,108.095Zm2.742-2.35h-.051a2.7,2.7,0,0,0-.255-.834h1.114v.025A.809.809,0,0,1,22.48,105.745Z" transform="translate(0.998 -92.818)"/></g></svg>