<svg xmlns="http://www.w3.org/2000/svg" width="48" height="48" viewBox="0 0 48 48"><defs><style>.a{fill:#4ece64;stroke:#b1e5ab;stroke-width:4px;}.b{fill:#f7f7f7;}.c{stroke:none;}.d{fill:none;}</style></defs><g class="a"><circle class="c" cx="24" cy="24" r="24"/><circle class="d" cx="24" cy="24" r="22"/></g><path class="b" d="M1.747,63.472V62.433H.572A.572.572,0,0,1,0,61.861V59.727a2.573,2.573,0,0,1,2.57-2.57H9.155a3.016,3.016,0,0,1,1.375.333l16.055,8.269a.572.572,0,1,1-.524,1.017l-.762-.392-.545,1.058c-.007.014-.016.026-.024.039a1.757,1.757,0,0,1,.155,1.853L23.6,71.839a.571.571,0,0,1-.77.247l-.439-.226H19.792a1.369,1.369,0,0,1-2.734,0H4.353a1.369,1.369,0,0,1-2.734,0H.639a.572.572,0,0,1,0-1.144h4.6l-1.411-.862a.572.572,0,0,1,.013-.984l2.31-1.33L3.832,66.12a.572.572,0,0,1,.013-.984l1.9-1.093H2.319A.572.572,0,0,1,1.747,63.472ZM7.352,62.9a.572.572,0,0,1,.262.063l15.227,7.842,1.029-2a.614.614,0,0,0-.264-.826l-14.559-7.5H2.891V62.9Zm9.017-1.116-.483.938L19.335,64.5l.483-.938Zm-7.6-2.443V58.3H4.48v1.041Zm-7.625.385v1.563h.6v-.868a1.081,1.081,0,0,1,1.08-1.08h.508V58.3H2.57A1.427,1.427,0,0,0,1.144,59.727Zm8.863-1.22c-.031-.016-.063-.031-.095-.045v1.183L14.87,62.2l.483-.938Zm10.828,5.577-.483.938L23.8,66.8l.483-.938Zm-2.409,7.929a.227.227,0,0,0,.214-.154h-.428A.227.227,0,0,0,18.425,72.013Zm-15.439,0a.227.227,0,0,0,.214-.154H2.773A.227.227,0,0,0,2.986,72.013Zm4.587-4.947a.572.572,0,0,1-.013.984l-2.31,1.33,2.186,1.336h12.73L7.638,64.263a.582.582,0,0,1-.077.054l-2.31,1.33Z" transform="translate(10.77 -41.407)"/></svg>