<svg xmlns="http://www.w3.org/2000/svg" width="348.36" height="100.475" viewBox="0 0 348.36 100.475"><defs><style>.a{fill:#ed2024;}.b{fill:#134b94;}</style></defs><path class="a" d="M182.15,100.47h0c-.04-.07-.4-.43-1-1.04a267.714,267.714,0,0,1-21.49-24.16c-11.2-14.48-16.88-26.15-16.88-34.67a41.577,41.577,0,0,1,3.09-15.81,40.539,40.539,0,0,1,8.44-12.9,39.125,39.125,0,0,1,12.51-8.7,38.351,38.351,0,0,1,30.65,0,39.125,39.125,0,0,1,12.51,8.7,40.51,40.51,0,0,1,8.43,12.9A41.424,41.424,0,0,1,221.5,40.6c0,8.28-5.39,19.55-16.02,33.49a274.9,274.9,0,0,1-21.66,24.6c-1.07,1.09-1.65,1.69-1.68,1.77h0ZM159.6,23.16v9.79h17.79v37.8h10.13V32.95h17.79V23.16Z" transform="translate(0 0.005)"/><g transform="translate(0 20.005)"><path class="b" d="M10.4,13.58c0,.91.6,1.64,1.8,2.21a23.54,23.54,0,0,0,4.39,1.5,45.311,45.311,0,0,1,5.17,1.63,10.143,10.143,0,0,1,4.39,3.3A9.126,9.126,0,0,1,27.95,28a9.335,9.335,0,0,1-3.91,8.06,16.26,16.26,0,0,1-9.76,2.82Q3.81,38.88,0,30.79l7.62-4.28q1.5,4.425,6.66,4.42,4.7,0,4.69-2.92c0-.91-.6-1.64-1.8-2.21a24.954,24.954,0,0,0-4.39-1.53,45.224,45.224,0,0,1-5.17-1.7,10.66,10.66,0,0,1-4.39-3.23,8.48,8.48,0,0,1-1.8-5.54A9.47,9.47,0,0,1,5.13,5.88a14.5,14.5,0,0,1,9.21-2.89,15.4,15.4,0,0,1,7.55,1.87,13.65,13.65,0,0,1,5.37,5.34l-7.48,4.08a5.6,5.6,0,0,0-5.44-3.47,4.978,4.978,0,0,0-2.82.75A2.3,2.3,0,0,0,10.4,13.58Z"/><path class="b" d="M71.54,2.97a12.092,12.092,0,0,1,9.35,3.81q3.5,3.81,3.5,10.2V37.92H75.62V17.59a6.949,6.949,0,0,0-1.5-4.76,5.333,5.333,0,0,0-4.22-1.7,5.774,5.774,0,0,0-4.66,1.97,8.643,8.643,0,0,0-1.67,5.71V37.92H54.8V17.59a6.949,6.949,0,0,0-1.5-4.76,5.333,5.333,0,0,0-4.22-1.7,5.913,5.913,0,0,0-4.66,1.97,8.384,8.384,0,0,0-1.73,5.71V37.92H33.92v-34h8.77v3.6q3.06-4.56,9.45-4.56,6.255,0,9.25,4.9C63.67,4.61,67.05,2.97,71.54,2.97Z"/><path class="b" d="M117.71,3.93h8.77v34h-8.77V33.92q-3.945,4.965-11.08,4.96a15.4,15.4,0,0,1-11.66-5.2,17.988,17.988,0,0,1-4.86-12.75A17.988,17.988,0,0,1,94.97,8.18a15.4,15.4,0,0,1,11.66-5.2q7.14,0,11.08,4.96V3.93Zm-16.19,23.9a9.065,9.065,0,0,0,6.73,2.69,9.164,9.164,0,0,0,6.77-2.69,9.344,9.344,0,0,0,2.69-6.9,9.344,9.344,0,0,0-2.69-6.9,9.187,9.187,0,0,0-6.77-2.69,9.065,9.065,0,0,0-6.73,2.69,9.394,9.394,0,0,0-2.65,6.9A9.394,9.394,0,0,0,101.52,27.83Z"/><path class="b" d="M147.25,4.88a9.193,9.193,0,0,0-4.05,4.9,9.964,9.964,0,0,0-4.48-4.9,12.316,12.316,0,0,0-6.29-1.63v9.79a2.134,2.134,0,0,1,2,2.13V37.93h8.77V21.67c0-3.26,1.05-5.6,3.16-7a10.34,10.34,0,0,1,7.17-1.63V3.25A12.305,12.305,0,0,0,147.25,4.88Z"/><path class="b" d="M228.17,5.22a9.193,9.193,0,0,0-4.05,4.9,9.964,9.964,0,0,0-4.48-4.9,12.316,12.316,0,0,0-6.29-1.63v9.79a2.134,2.134,0,0,1,2,2.13V38.27h8.77V22.01c0-3.26,1.05-5.6,3.16-7a10.34,10.34,0,0,1,7.17-1.63V3.59A12.305,12.305,0,0,0,228.17,5.22Z"/><path class="b" d="M264.11,4.27h8.77v34h-8.77V34.26q-3.945,4.965-11.08,4.96a15.4,15.4,0,0,1-11.66-5.2,17.987,17.987,0,0,1-4.86-12.75,17.987,17.987,0,0,1,4.86-12.75,15.4,15.4,0,0,1,11.66-5.2q7.14,0,11.08,4.96Zm-16.18,23.9a9.065,9.065,0,0,0,6.73,2.69,9.164,9.164,0,0,0,6.77-2.69,9.321,9.321,0,0,0,2.69-6.9,9.344,9.344,0,0,0-2.69-6.9,9.187,9.187,0,0,0-6.77-2.69,9.064,9.064,0,0,0-6.73,2.69,9.394,9.394,0,0,0-2.65,6.9A9.354,9.354,0,0,0,247.93,28.17Z"/><path class="b" d="M297.02,39.22a17.6,17.6,0,0,1-17.95-17.95A18.035,18.035,0,0,1,306.06,5.7a15.9,15.9,0,0,1,6.19,6.39l-7.55,4.42a7.64,7.64,0,0,0-3.09-3.33,8.958,8.958,0,0,0-4.66-1.22,8.771,8.771,0,0,0-6.53,2.62,9.154,9.154,0,0,0-2.58,6.7,9.038,9.038,0,0,0,2.58,6.63,8.771,8.771,0,0,0,6.53,2.62,9.388,9.388,0,0,0,4.73-1.19,7.463,7.463,0,0,0,3.09-3.3l7.62,4.35a17.1,17.1,0,0,1-6.32,6.43A17.431,17.431,0,0,1,297.02,39.22Z"/><path class="b" d="M348.36,38.27h-10.2L325.78,22.82V38.27h-8.77V-9.33h8.77V19.29l11.7-15.02h10.47l-13.67,16.8Z"/></g></svg>