<svg xmlns="http://www.w3.org/2000/svg" width="394" height="107.605" viewBox="0 0 394 107.605">
    <defs>
        <style>
            .cls-1{fill:red;stroke:rgba(0,0,0,0);stroke-miterlimit:10}.cls-2{fill:#004a95;font-size:68px;font-family:SegoeUI,Segoe UI}
        </style>
    </defs>
    <g id="Group_3558" data-name="Group 3558" transform="translate(-2891.371 2756.853)">
        <path id="Exclusion_105" d="M39.365 100.482c-.044-.07-.4-.435-1-1.038a267.742 267.742 0 0 1-21.49-24.162C5.678 60.8 0 49.136 0 40.614A41.477 41.477 0 0 1 3.094 24.8a40.572 40.572 0 0 1 8.436-12.9 39.184 39.184 0 0 1 12.511-8.7 38.379 38.379 0 0 1 30.645 0 39.188 39.188 0 0 1 12.513 8.7 40.572 40.572 0 0 1 8.434 12.9 41.472 41.472 0 0 1 3.093 15.809c0 8.284-5.391 19.553-16.022 33.489a274.887 274.887 0 0 1-21.661 24.6c-1.066 1.088-1.651 1.688-1.682 1.773zM24.824 23.169v9.789h9.789v29.8h10.125v-29.8h9.789v-9.789z" class="cls-1" data-name="Exclusion 105" transform="translate(3059.383 -2752)"/>
        <g id="Component_1_1" data-name="Component 1 – 1" transform="translate(2891.371 -2736.853)">
            <text id="Smar" class="cls-2" transform="translate(0 53)">
                <tspan x="0" y="0">smar</tspan>
            </text>
            <text id="rack" class="cls-2" transform="translate(255 53)">
                <tspan x="0" y="0">rack</tspan>
            </text>
        </g>
    </g>
</svg>
