<svg xmlns="http://www.w3.org/2000/svg" width="122.602" height="35.643" viewBox="0 0 122.602 35.643"><defs><style>.a{fill:#ed2024;}.b{fill:#fff;}</style></defs><path class="a" d="M82.18,35.65h0c-.015-.022-.141-.156-.356-.371a95.961,95.961,0,0,1-7.627-8.57c-3.973-5.139-5.986-9.276-5.986-12.3A14.582,14.582,0,0,1,72.3,4.228a13.9,13.9,0,0,1,4.441-3.09,13.634,13.634,0,0,1,10.873,0,13.781,13.781,0,0,1,4.441,3.09A14.524,14.524,0,0,1,95.05,8.8a14.818,14.818,0,0,1,1.1,5.607c0,2.941-1.916,6.937-5.681,11.883a97.408,97.408,0,0,1-7.687,8.726,6.116,6.116,0,0,0-.6.631Zm-8-27.434v3.476h6.313V25.1h3.595V11.692H90.4V8.216H74.181Z" transform="translate(-17.553 -0.007)"/><g transform="translate(0 3.782)"><g transform="translate(0 4.359)"><path class="b" d="M3.691-5.262c0,.319.215.587.639.787a8.107,8.107,0,0,0,1.56.527,17.43,17.43,0,0,1,1.834.579,3.571,3.571,0,0,1,1.56,1.173,3.261,3.261,0,0,1,.639,2.05A3.306,3.306,0,0,1,8.533,2.714a5.764,5.764,0,0,1-3.461,1Q1.352,3.717,0,.843L2.7-.68A2.236,2.236,0,0,0,5.065.887c1.107,0,1.664-.349,1.664-1.04,0-.319-.215-.579-.639-.787a10.1,10.1,0,0,0-1.552-.535,14.3,14.3,0,0,1-1.834-.6A3.807,3.807,0,0,1,1.144-3.22,3.027,3.027,0,0,1,.505-5.188,3.366,3.366,0,0,1,1.82-8,5.158,5.158,0,0,1,5.087-9.02a5.536,5.536,0,0,1,2.681.661A4.923,4.923,0,0,1,9.677-6.465L7.018-5.017A2,2,0,0,0,5.087-6.25a1.769,1.769,0,0,0-1,.267A.832.832,0,0,0,3.691-5.262Z" transform="translate(0 9.027)"/><path class="b" d="M29.558-9.023a4.31,4.31,0,0,1,3.32,1.352,5.119,5.119,0,0,1,1.24,3.617V3.373H31.007V-3.839a2.491,2.491,0,0,0-.527-1.686,1.893,1.893,0,0,0-1.493-.6,2.06,2.06,0,0,0-1.656.7A3.071,3.071,0,0,0,26.736-3.4V3.38H23.624V-3.831A2.491,2.491,0,0,0,23.1-5.517a1.893,1.893,0,0,0-1.493-.6,2.1,2.1,0,0,0-1.656.7,2.994,2.994,0,0,0-.616,2.027V3.387H16.22V-8.688h3.112v1.277A3.759,3.759,0,0,1,22.689-9.03a3.577,3.577,0,0,1,3.283,1.738A4.054,4.054,0,0,1,29.558-9.023Z" transform="translate(-4.174 9.03)"/><path class="b" d="M52.836-8.688h3.112V3.373H52.836V1.954A4.743,4.743,0,0,1,48.9,3.714a5.456,5.456,0,0,1-4.137-1.849A6.379,6.379,0,0,1,43.04-2.658a6.379,6.379,0,0,1,1.723-4.523A5.468,5.468,0,0,1,48.9-9.03a4.752,4.752,0,0,1,3.936,1.76ZM47.095-.207a3.2,3.2,0,0,0,2.391.951,3.258,3.258,0,0,0,2.4-.951,3.3,3.3,0,0,0,.951-2.451,3.342,3.342,0,0,0-.951-2.451,3.24,3.24,0,0,0-2.4-.951,3.241,3.241,0,0,0-2.391.951,3.355,3.355,0,0,0-.943,2.451A3.367,3.367,0,0,0,47.095-.207Z" transform="translate(-11.076 9.03)"/><path class="b" d="M68.531-8.313A3.244,3.244,0,0,0,67.1-6.575a3.524,3.524,0,0,0-1.589-1.738,4.373,4.373,0,0,0-2.228-.579v3.476a.761.761,0,0,1,.713.758V3.406H67.1V-2.357a2.771,2.771,0,0,1,1.121-2.488,3.683,3.683,0,0,1,2.547-.579V-8.9A4.468,4.468,0,0,0,68.531-8.313Z" transform="translate(-16.284 8.997)"/></g><g transform="translate(74.708)"><path class="b" d="M107.191-8.153a3.244,3.244,0,0,0-1.433,1.738,3.524,3.524,0,0,0-1.589-1.738,4.373,4.373,0,0,0-2.228-.579v3.476a.761.761,0,0,1,.713.758V3.573h3.112V-2.2a2.771,2.771,0,0,1,1.121-2.488,3.683,3.683,0,0,1,2.547-.579V-8.74A4.468,4.468,0,0,0,107.191-8.153Z" transform="translate(-101.94 13.315)"/><path class="b" d="M122.786-8.528H125.9V3.54h-3.112V2.114a4.743,4.743,0,0,1-3.936,1.76,5.456,5.456,0,0,1-4.137-1.849A6.379,6.379,0,0,1,112.99-2.5a6.379,6.379,0,0,1,1.723-4.523A5.468,5.468,0,0,1,118.85-8.87a4.752,4.752,0,0,1,3.936,1.76ZM117.038-.047A3.2,3.2,0,0,0,119.429.9a3.258,3.258,0,0,0,2.4-.951,3.319,3.319,0,0,0,.951-2.451,3.342,3.342,0,0,0-.951-2.451,3.24,3.24,0,0,0-2.4-.951,3.241,3.241,0,0,0-2.391.951,3.355,3.355,0,0,0-.943,2.451A3.373,3.373,0,0,0,117.038-.047Z" transform="translate(-104.784 13.348)"/><path class="b" d="M139.695,3.874A6.124,6.124,0,0,1,135.15,2.04,6.17,6.17,0,0,1,133.33-2.5a6.2,6.2,0,0,1,1.82-4.538,6.147,6.147,0,0,1,4.545-1.834,6.24,6.24,0,0,1,3.208.847,5.7,5.7,0,0,1,2.2,2.265L142.42-4.191a2.718,2.718,0,0,0-1.1-1.181,3.19,3.19,0,0,0-1.656-.438,3.123,3.123,0,0,0-2.317.928,3.242,3.242,0,0,0-.913,2.377,3.226,3.226,0,0,0,.913,2.354,3.123,3.123,0,0,0,2.317.928,3.316,3.316,0,0,0,1.678-.423,2.664,2.664,0,0,0,1.1-1.173l2.7,1.545a6.007,6.007,0,0,1-2.243,2.28A6.049,6.049,0,0,1,139.695,3.874Z" transform="translate(-110.018 13.348)"/><path class="b" d="M162.578,1.988h-3.617l-4.389-5.481V1.988H151.46V-14.9h3.112V-4.748l4.152-5.325h3.713l-4.85,5.956Z" transform="translate(-114.683 14.9)"/></g></g></svg>