<svg width="29.091" height="16" xmlns="http://www.w3.org/2000/svg">

 <g>
  <title>background</title>
  <rect fill="none" id="canvas_background" height="402" width="582" y="-1" x="-1"/>
 </g>
 <g>
  <title>Layer 1</title>
  <path fill="#141211" id="svg_4" d="m29.051,8.323l-1.872,-4.211a0.468,0.468 0 0 0 -0.428,-0.278l-4.679,0a0.468,0.468 0 0 0 -0.468,0.468l0,9.359a0.468,0.468 0 0 0 0.468,0.468l0.936,0a1.872,1.872 0 1 0 3.743,0l1.872,0a0.468,0.468 0 0 0 0.468,-0.468l0,-5.147a0.468,0.468 0 0 0 -0.04,-0.191zm-1.772,-1.682l0.624,1.4l-1.62,0l0,-1.4l0.996,0zm-4.739,0l0.936,0l0,1.4l-0.936,0l0,-1.4zm2.34,8.423a0.936,0.936 0 1 1 0.936,-0.936a0.936,0.936 0 0 1 -0.936,0.936zm3.276,-5.147l-0.936,0l0,0.936l0.936,0l0,2.34l-1.664,0a1.855,1.855 0 0 0 -3.223,0l-0.728,0l0,-4.211l1.4,0a0.468,0.468 0 0 0 0.468,-0.468l0,-2.34a0.468,0.468 0 0 0 -0.468,-0.468l-1.4,0l0,-0.936l3.908,0l0.416,0.936l-1.048,0a0.468,0.468 0 0 0 -0.468,0.468l0,2.34a0.468,0.468 0 0 0 0.468,0.468l2.34,0l-0.001,0.935z" class="a"/>
  <path fill="#141212" id="svg_7" d="m19.834,11.789001l-3.743,0a0.468,0.468 0 0 0 -0.468,0.468l0,1.872a0.468,0.468 0 0 0 0.468,0.468l3.743,0a0.468,0.468 0 0 0 0.468,-0.468l0,-1.872a0.468,0.468 0 0 0 -0.468,-0.468zm-0.468,1.872l-2.808,0l0,-0.936l2.808,0l0,0.936z" class="a"/>
  <path fill="#0c0b0b" id="svg_10" d="m13.57,11.789001l-12.166,0a0.468,0.468 0 0 0 -0.468,0.468l0,1.872a0.468,0.468 0 0 0 0.468,0.468l1.938,0a1.863,1.863 0 0 0 3.611,0l1.069,0a1.863,1.863 0 0 0 3.611,0l1.938,0a0.468,0.468 0 0 0 0.468,-0.468l0,-1.872a0.468,0.468 0 0 0 -0.469,-0.468zm-10.228,1.872l-1.47,0l0,-0.936l2.05,0a1.861,1.861 0 0 0 -0.58,0.936zm1.805,1.4a0.936,0.936 0 1 1 0.936,-0.936a0.936,0.936 0 0 1 -0.936,0.94l0,-0.004zm2.874,-1.4l-1.068,0a1.861,1.861 0 0 0 -0.58,-0.936l2.229,0a1.861,1.861 0 0 0 -0.581,0.936zm1.805,1.4a0.936,0.936 0 1 1 0.936,-0.936a0.936,0.936 0 0 1 -0.935,0.94l-0.001,-0.004zm3.276,-1.4l-1.466,0a1.861,1.861 0 0 0 -0.58,-0.936l2.05,0l-0.004,0.936z" class="a"/>
  <path fill="#0c0909" id="svg_13" d="m16.907,1.872l-5.207,0l0,-0.936l0.936,0l0,-0.936l-5.617,0l0,0.936l0.936,0l0,0.936l-5.208,0a2.75,2.75 0 0 0 -2.747,2.747l0,2.929a2.75,2.75 0 0 0 2.747,2.747l14.16,0a2.75,2.75 0 0 0 2.747,-2.747l0,-2.929a2.75,2.75 0 0 0 -2.747,-2.747zm-8.016,-0.936l1.872,0l0,0.936l-1.872,0l0,-0.936zm-6.083,8.423l-0.061,0a1.813,1.813 0 0 1 -1.811,-1.811l0,-2.929a1.813,1.813 0 0 1 1.811,-1.811l0.061,0l0,6.551zm2.808,0l-1.873,0l0,-0.936l1.872,0l0.001,0.936zm0,-1.872l-1.873,0l0,-0.936l1.872,0l0.001,0.936zm0,-1.872l-1.873,0l0,-0.936l1.872,0l0.001,0.936zm0,-1.872l-1.873,0l0,-0.936l1.872,0l0.001,0.936zm13.1,3.8a1.813,1.813 0 0 1 -1.811,1.811l-0.529,0l0,-5.615l-0.936,0l0,5.615l-8.889,0l0,-6.551l10.356,0a1.813,1.813 0 0 1 1.811,1.811l0,2.929l-0.002,0z" class="a"/>
 </g>
</svg>