<svg xmlns="http://www.w3.org/2000/svg" width="25.004" height="16" viewBox="0 0 25.004 16"><defs><style>.a{fill:#000c98;}</style></defs><g transform="translate(-270.991 -437.5)"><path class="a" d="M46.787,140.967a.364.364,0,0,0,.257-.621L44,137.3l.457-.458.714.714a.363.363,0,0,0,.514,0l2.04-2.04a1.739,1.739,0,0,0,0-2.457.363.363,0,0,0-.514,0L44.2,136.071h0l-.714.714L42.6,135.9a1.532,1.532,0,0,0-.226-1.875l-1.1-1.1a.364.364,0,0,0-.514.514l1.1,1.1a.8.8,0,1,1-1.135,1.135l-1.1-1.1a.364.364,0,1,0-.514.514l1.1,1.1a1.53,1.53,0,0,0,1.875.226l4.445,4.445A.363.363,0,0,0,46.787,140.967Zm.632-7.088A1.012,1.012,0,0,1,47.21,135l-1.783,1.783-.457-.457Z" transform="translate(233.93 306.623)"/><path class="a" d="M57.181,151.511a.364.364,0,0,0,.514-.514l-1.1-1.1a.364.364,0,0,0-.514.514Z" transform="translate(217.783 290.499)"/><path class="a" d="M58.1,239.293l-2.253,2.253a.364.364,0,1,0,.514.514l2.253-2.253a.364.364,0,0,0-.514-.514Z" transform="translate(218.006 205.488)"/><path class="a" d="M80.147,340.833a1.141,1.141,0,1,0,1.141,1.141A1.142,1.142,0,0,0,80.147,340.833Zm0,1.555a.414.414,0,1,1,.414-.414A.414.414,0,0,1,80.147,342.388Z" transform="translate(195.902 108.831)"/><path class="a" d="M400.17,340.833a1.141,1.141,0,1,0,1.141,1.141A1.142,1.142,0,0,0,400.17,340.833Zm0,1.555a.414.414,0,1,1,.414-.414A.414.414,0,0,1,400.17,342.388Z" transform="translate(-108.424 108.831)"/><path class="a" d="M22.669,101.3l-4.62-.616-1.242-4.036a1.533,1.533,0,0,0-1.473-1.088H12.262V93.967a1.15,1.15,0,0,0-1.149-1.149H.151A1.151,1.151,0,0,0-1,93.967V105.32a1.151,1.151,0,0,0,1.149,1.149H1.376a2.714,2.714,0,0,0,5.379,0h10.28a2.714,2.714,0,0,0,5.379,0h.051a1.542,1.542,0,0,0,1.541-1.541v-2.1A1.546,1.546,0,0,0,22.669,101.3Zm-5.4-.65H13.853a.025.025,0,0,1-.025-.025v-2.74a.025.025,0,0,1,.025-.025h2.56ZM4.066,108.085A1.985,1.985,0,0,1,2.083,106.1h0a1.983,1.983,0,0,1,2.973-1.717.366.366,0,0,0,.367-.634,2.715,2.715,0,0,0-4.047,1.985H.151a.417.417,0,0,1-.417-.417V93.967a.417.417,0,0,1,.417-.417H11.113a.417.417,0,0,1,.417.417v2.741a.366.366,0,0,0,.733,0v-.417h3.073a.8.8,0,0,1,.772.571l.081.263H13.853a.759.759,0,0,0-.758.758v2.74a.759.759,0,0,0,.758.758h3.891l4.829.644a.811.811,0,0,1,.671.581h-.386a.366.366,0,1,0,0,.733h.417v.833H21.63a2.713,2.713,0,0,0-4.595,1.566H12.262V104.9h3.818a.366.366,0,1,0,0-.733H12.262v-5.9a.366.366,0,0,0-.733,0v7.463H6.756a2.693,2.693,0,0,0-.129-.536.366.366,0,1,0-.691.243,1.984,1.984,0,0,1-1.871,2.641Zm15.659,0a1.983,1.983,0,1,1,1.983-1.983A1.985,1.985,0,0,1,19.725,108.085Zm2.74-2.349h-.051a2.693,2.693,0,0,0-.255-.833h1.113v.025A.809.809,0,0,1,22.466,105.737Z" transform="translate(271.989 344.682)"/></g></svg>