<svg xmlns="http://www.w3.org/2000/svg" width="32" height="32" viewBox="0 0 32 32"><defs><style>.a{fill:#4ece64;stroke:#b1e5ab;stroke-width:2px;}.b{fill:#f7f7f7;}.c{stroke:none;}.d{fill:none;}</style></defs><g transform="translate(-304 -657)"><g class="a" transform="translate(304 657)"><circle class="c" cx="16" cy="16" r="16"/><circle class="d" cx="16" cy="16" r="15"/></g><path class="b" d="M1.172,61.393v-.7H.384A.384.384,0,0,1,0,60.313V58.881a1.726,1.726,0,0,1,1.724-1.724H6.142a2.023,2.023,0,0,1,.923.224l10.771,5.547a.384.384,0,1,1-.351.682l-.511-.263-.365.71c0,.009-.01.017-.016.026a1.179,1.179,0,0,1,.1,1.243l-.866,1.681a.383.383,0,0,1-.517.165l-.294-.152H13.278a.918.918,0,0,1-1.834,0H2.921a.918.918,0,0,1-1.834,0H.429a.384.384,0,1,1,0-.767H3.517l-.947-.578a.384.384,0,0,1,.009-.66l1.55-.892L2.571,63.17a.384.384,0,0,1,.009-.66l1.273-.733h-2.3A.384.384,0,0,1,1.172,61.393Zm3.76-.383a.384.384,0,0,1,.176.043l10.215,5.261.69-1.34a.412.412,0,0,0-.177-.554L6.069,59.39H1.94v1.62Zm6.05-.749-.324.629,2.313,1.191.324-.629Zm-5.1-1.639v-.7H3.005v.7Zm-5.115.258v1.048h.4v-.582a.725.725,0,0,1,.725-.725h.341v-.7H1.724A.958.958,0,0,0,.767,58.881Zm5.946-.818-.063-.03v.793l3.326,1.713.324-.629ZM13.977,61.8l-.324.629,2.313,1.191L16.291,63Zm-1.616,5.32a.152.152,0,0,0,.143-.1h-.287A.152.152,0,0,0,12.361,67.124ZM2,67.124a.152.152,0,0,0,.143-.1H1.86A.152.152,0,0,0,2,67.124ZM5.081,63.8a.384.384,0,0,1-.009.66l-1.55.892,1.466.9h8.54l-8.4-4.329a.391.391,0,0,1-.052.036l-1.55.892Z" transform="translate(311.225 610.409)"/></g></svg>