<svg xmlns="http://www.w3.org/2000/svg" width="32" height="32" viewBox="0 0 32 32"><defs><style>.a{fill:#1c1c1c;stroke:#b4b4b4;stroke-width:2px;}.b{fill:#f7f7f7;}.c{stroke:none;}.d{fill:none;}</style></defs><g transform="translate(-283 -678)"><g class="a" transform="translate(283 678)"><circle class="c" cx="16" cy="16" r="16"/><circle class="d" cx="16" cy="16" r="15"/></g><g transform="translate(289.145 688.172)"><g transform="translate(14.318 2.744)"><g transform="translate(0 0)"><path class="b" d="M356.747,166.862l-1.193-2.685a.3.3,0,0,0-.273-.177H352.3a.3.3,0,0,0-.3.3v5.966a.3.3,0,0,0,.3.3h.6a1.193,1.193,0,1,0,2.386,0h1.193a.3.3,0,0,0,.3-.3v-3.281A.3.3,0,0,0,356.747,166.862Zm-1.129-1.072.4.895h-1.032v-.895Zm-3.021,0h.6v.895h-.6Zm1.491,5.369a.6.6,0,1,1,.6-.6A.6.6,0,0,1,354.088,171.159Zm2.088-3.281h-.6v.6h.6v1.491h-1.061a1.183,1.183,0,0,0-2.055,0H352.6v-2.685h.895a.3.3,0,0,0,.3-.3v-1.491a.3.3,0,0,0-.3-.3H352.6v-.6h2.491l.265.6h-.668a.3.3,0,0,0-.3.3v1.491a.3.3,0,0,0,.3.3h1.491Z" transform="translate(-352 -164)"/></g></g><g transform="translate(10.309 7.815)"><g transform="translate(0 0)"><path class="b" d="M258.685,300H256.3a.3.3,0,0,0-.3.3v1.193a.3.3,0,0,0,.3.3h2.386a.3.3,0,0,0,.3-.3V300.3A.3.3,0,0,0,258.685,300Zm-.3,1.193H256.6v-.6h1.79Z" transform="translate(-256 -300)"/></g></g><g transform="translate(0.597 7.815)"><g transform="translate(0 0)"><path class="b" d="M24.054,300H16.3a.3.3,0,0,0-.3.3v1.193a.3.3,0,0,0,.3.3h1.236a1.188,1.188,0,0,0,2.3,0h.681a1.188,1.188,0,0,0,2.3,0h1.236a.3.3,0,0,0,.3-.3V300.3A.3.3,0,0,0,24.054,300Zm-6.52,1.193H16.6v-.6H17.9A1.186,1.186,0,0,0,17.534,301.193Zm1.151.895a.6.6,0,1,1,.6-.6A.6.6,0,0,1,18.685,302.088Zm1.832-.895h-.681a1.186,1.186,0,0,0-.37-.6h1.421A1.186,1.186,0,0,0,20.517,301.193Zm1.151.895a.6.6,0,1,1,.6-.6A.6.6,0,0,1,21.668,302.088Zm2.088-.895h-.937a1.186,1.186,0,0,0-.37-.6h1.307Z" transform="translate(-16 -300)"/></g></g><g transform="translate(0 0)"><g transform="translate(0 0)"><path class="b" d="M10.777,109.193H7.457v-.6h.6V108H4.474v.6h.6v.6H1.751A1.753,1.753,0,0,0,0,110.944v1.867a1.753,1.753,0,0,0,1.751,1.751h9.026a1.753,1.753,0,0,0,1.751-1.751v-1.867A1.753,1.753,0,0,0,10.777,109.193Zm-5.11-.6H6.861v.6H5.668ZM1.79,113.966H1.751A1.156,1.156,0,0,1,.6,112.812v-1.867a1.156,1.156,0,0,1,1.154-1.154H1.79Zm1.79,0H2.386v-.6H3.58Zm0-1.193H2.386v-.6H3.58Zm0-1.193H2.386v-.6H3.58Zm0-1.193H2.386v-.6H3.58Zm8.352,2.425a1.156,1.156,0,0,1-1.154,1.154H10.44v-3.58h-.6v3.58H4.176V109.79h6.6a1.156,1.156,0,0,1,1.154,1.154v1.867Z" transform="translate(0 -108)"/></g></g></g></g></svg>