<svg xmlns="http://www.w3.org/2000/svg" width="32" height="32" viewBox="0 0 32 32"><defs><style>.a{fill:#000c98;stroke:#b2b7ff;stroke-width:2px;}.b{fill:#fff;}.c{stroke:none;}.d{fill:none;}</style></defs><g transform="translate(-340 -595)"><g class="a" transform="translate(340 595)"><circle class="c" cx="16" cy="16" r="16"/><circle class="d" cx="16" cy="16" r="15"/></g><g transform="translate(347.984 605.979)"><path class="b" d="M44.227,138.288a.244.244,0,0,0,.172-.417l-2.044-2.044.307-.307.48.479a.244.244,0,0,0,.345,0l1.369-1.369a1.167,1.167,0,0,0,0-1.649.244.244,0,0,0-.345,0L42.49,135h0l-.479.479-.594-.594a1.028,1.028,0,0,0-.152-1.258l-.738-.738a.244.244,0,0,0-.345.345l.738.738a.538.538,0,1,1-.761.762L39.421,134a.244.244,0,0,0-.345.345l.738.738a1.027,1.027,0,0,0,1.259.152l2.983,2.983A.243.243,0,0,0,44.227,138.288Zm.424-4.757a.679.679,0,0,1-.14.754l-1.2,1.2-.307-.307Z" transform="translate(-37.7 -131.516)"/><path class="b" d="M56.784,150.945a.244.244,0,0,0,.345-.345l-.738-.738a.244.244,0,1,0-.345.345Z" transform="translate(-54.118 -147.934)"/><path class="b" d="M57.324,239.257l-1.512,1.512a.244.244,0,1,0,.345.345l1.512-1.512a.244.244,0,0,0-.345-.345Z" transform="translate(-53.891 -234.414)"/><path class="b" d="M79.772,340.833a.766.766,0,1,0,.766.766A.767.767,0,0,0,79.772,340.833Zm0,1.043a.278.278,0,1,1,.278-.278A.278.278,0,0,1,79.772,341.876Z" transform="translate(-76.398 -332.748)"/><path class="b" d="M399.795,340.833a.766.766,0,1,0,.766.766A.766.766,0,0,0,399.795,340.833Zm0,1.043a.278.278,0,1,1,.278-.278A.278.278,0,0,1,399.795,341.876Z" transform="translate(-385.988 -332.748)"/><path class="b" d="M14.77,98.467l-3.078-.41-.827-2.689a1.021,1.021,0,0,0-.981-.725H7.836v-1.06a.766.766,0,0,0-.766-.766h-7.3A.766.766,0,0,0-1,93.584v7.564a.767.767,0,0,0,.766.766H.584a1.808,1.808,0,0,0,3.584,0h6.849a1.808,1.808,0,0,0,3.584,0h.034a1.028,1.028,0,0,0,1.027-1.026v-1.4A1.03,1.03,0,0,0,14.77,98.467Zm-3.6-.433H8.9a.017.017,0,0,1-.017-.017V96.192a.017.017,0,0,1,.017-.017H10.6Zm-8.8,4.955a1.322,1.322,0,0,1-1.321-1.321h0a1.321,1.321,0,0,1,1.981-1.144.244.244,0,0,0,.244-.423,1.809,1.809,0,0,0-2.7,1.323H-.232a.278.278,0,0,1-.278-.278V93.584a.278.278,0,0,1,.278-.278h7.3a.278.278,0,0,1,.278.278v1.826a.244.244,0,0,0,.488,0v-.278H9.883a.536.536,0,0,1,.514.38l.054.175H8.9a.505.505,0,0,0-.5.5v1.826a.505.505,0,0,0,.5.5h2.592l3.217.429a.541.541,0,0,1,.447.387h-.257a.244.244,0,1,0,0,.488h.278v.555H14.078a1.807,1.807,0,0,0-3.061,1.043H7.836v-.555h2.543a.244.244,0,1,0,0-.488H7.836V96.453a.244.244,0,0,0-.488,0v4.972H4.168a1.794,1.794,0,0,0-.086-.357.244.244,0,1,0-.46.162,1.322,1.322,0,0,1-1.246,1.76Zm10.433,0a1.321,1.321,0,1,1,1.321-1.321A1.322,1.322,0,0,1,12.808,102.99Zm1.826-1.565H14.6a1.794,1.794,0,0,0-.17-.555h.742v.017A.539.539,0,0,1,14.634,101.425Z" transform="translate(0.998 -92.818)"/></g></g></svg>