<svg xmlns="http://www.w3.org/2000/svg" width="29.091" height="16" viewBox="0 0 29.091 16"><defs><style>.a{fill:#ff6b64;}</style></defs><g transform="translate(0 -108)"><g transform="translate(21.604 111.834)"><g transform="translate(0 0)"><path class="a" d="M359.447,168.489l-1.872-4.211a.468.468,0,0,0-.428-.278h-4.679a.468.468,0,0,0-.468.468v9.359a.468.468,0,0,0,.468.468h.936a1.872,1.872,0,1,0,3.743,0h1.872a.468.468,0,0,0,.468-.468v-5.147A.468.468,0,0,0,359.447,168.489Zm-1.772-1.682.624,1.4h-1.62v-1.4Zm-4.739,0h.936v1.4h-.936Zm2.34,8.423a.936.936,0,1,1,.936-.936A.936.936,0,0,1,355.276,175.23Zm3.276-5.147h-.936v.936h.936v2.34h-1.664a1.855,1.855,0,0,0-3.223,0h-.728v-4.211h1.4a.468.468,0,0,0,.468-.468v-2.34a.468.468,0,0,0-.468-.468h-1.4v-.936h3.908l.416.936h-1.048a.468.468,0,0,0-.468.468v2.34a.468.468,0,0,0,.468.468h2.34Z" transform="translate(-352 -164)"/></g></g><g transform="translate(15.623 119.789)"><g transform="translate(0 0)"><path class="a" d="M260.211,300h-3.743a.468.468,0,0,0-.468.468v1.872a.468.468,0,0,0,.468.468h3.743a.468.468,0,0,0,.468-.468v-1.872A.468.468,0,0,0,260.211,300Zm-.468,1.872h-2.808v-.936h2.808Z" transform="translate(-256 -300)"/></g></g><g transform="translate(0.936 119.789)"><g transform="translate(0 0)"><path class="a" d="M28.634,300H16.468a.468.468,0,0,0-.468.468v1.872a.468.468,0,0,0,.468.468h1.938a1.863,1.863,0,0,0,3.611,0h1.069a1.863,1.863,0,0,0,3.611,0h1.938a.468.468,0,0,0,.468-.468v-1.872A.468.468,0,0,0,28.634,300Zm-10.228,1.872h-1.47v-.936h2.05A1.861,1.861,0,0,0,18.406,301.872Zm1.805,1.4a.936.936,0,1,1,.936-.936A.936.936,0,0,1,20.211,303.276Zm2.874-1.4H22.017a1.861,1.861,0,0,0-.58-.936h2.229A1.861,1.861,0,0,0,23.085,301.872Zm1.805,1.4a.936.936,0,1,1,.936-.936A.936.936,0,0,1,24.891,303.276Zm3.276-1.4H26.7a1.861,1.861,0,0,0-.58-.936h2.05Z" transform="translate(-16 -300)"/></g></g><g transform="translate(0 108)"><g transform="translate(0 0)"><path class="a" d="M16.907,109.872H11.7v-.936h.936V108H7.019v.936h.936v.936H2.747A2.75,2.75,0,0,0,0,112.619v2.929a2.75,2.75,0,0,0,2.747,2.747h14.16a2.75,2.75,0,0,0,2.747-2.747v-2.929A2.75,2.75,0,0,0,16.907,109.872Zm-8.016-.936h1.872v.936H8.891Zm-6.083,8.423H2.747a1.813,1.813,0,0,1-1.811-1.811v-2.929a1.813,1.813,0,0,1,1.811-1.811h.061Zm2.808,0H3.743v-.936H5.615Zm0-1.872H3.743v-.936H5.615Zm0-1.872H3.743v-.936H5.615Zm0-1.872H3.743v-.936H5.615Zm13.1,3.8a1.813,1.813,0,0,1-1.811,1.811h-.529v-5.615h-.936v5.615H6.551v-6.551H16.907a1.813,1.813,0,0,1,1.811,1.811v2.929Z" transform="translate(0 -108)"/></g></g></g></svg>